<mxfile host="65bd71144e">
    <diagram id="wbElLvtlMgoXMm2tej4S" name="Page-1">
        <mxGraphModel dx="939" dy="604" grid="1" gridSize="10" guides="1" tooltips="1" connect="1" arrows="1" fold="1" page="1" pageScale="1" pageWidth="850" pageHeight="1100" math="0" shadow="0">
            <root>
                <mxCell id="0"/>
                <mxCell id="1" parent="0"/>
                <mxCell id="2" value="&lt;div style=&quot;color: rgb(220, 215, 186); background-color: rgb(31, 31, 40); font-family: Menlo, Monaco, &amp;quot;Courier New&amp;quot;, monospace; font-weight: normal; font-size: 12px; line-height: 18px; white-space: pre;&quot;&gt;&lt;div&gt;&lt;span style=&quot;color: rgb(156, 171, 202);&quot;&gt;#&lt;/span&gt;&lt;span style=&quot;color: rgb(149, 127, 184);&quot;&gt;include&lt;/span&gt;&lt;span style=&quot;color: rgb(152, 187, 108);&quot;&gt;&amp;lt;stdio.h&amp;gt;&lt;/span&gt;&lt;/div&gt;&lt;div&gt;&lt;span style=&quot;color: rgb(156, 171, 202);&quot;&gt;#&lt;/span&gt;&lt;span style=&quot;color: rgb(149, 127, 184);&quot;&gt;include&lt;/span&gt;&lt;span style=&quot;color: rgb(152, 187, 108);&quot;&gt;&amp;lt;stdlib.h&amp;gt;&lt;/span&gt;&lt;/div&gt;&lt;br&gt;&lt;div&gt;&lt;span style=&quot;color: rgb(149, 127, 184);&quot;&gt;struct&lt;/span&gt;&lt;span style=&quot;color: rgb(220, 215, 186);&quot;&gt; &lt;/span&gt;&lt;span style=&quot;color: rgb(122, 168, 159);&quot;&gt;node&lt;/span&gt;&lt;/div&gt;&lt;div&gt;&lt;span style=&quot;color: rgb(156, 171, 202);&quot;&gt;{&lt;/span&gt;&lt;/div&gt;&lt;div&gt;&lt;span style=&quot;color: rgb(220, 215, 186);&quot;&gt;    &lt;/span&gt;&lt;span style=&quot;color: rgb(149, 127, 184);&quot;&gt;int&lt;/span&gt;&lt;span style=&quot;color: rgb(220, 215, 186);&quot;&gt; &lt;/span&gt;&lt;span style=&quot;color: rgb(230, 195, 132);&quot;&gt;data&lt;/span&gt;&lt;span style=&quot;color: rgb(156, 171, 202);&quot;&gt;;&lt;/span&gt;&lt;/div&gt;&lt;div&gt;&lt;span style=&quot;color: rgb(220, 215, 186);&quot;&gt;    &lt;/span&gt;&lt;span style=&quot;color: rgb(149, 127, 184);&quot;&gt;struct&lt;/span&gt;&lt;span style=&quot;color: rgb(220, 215, 186);&quot;&gt; &lt;/span&gt;&lt;span style=&quot;color: rgb(122, 168, 159);&quot;&gt;node&lt;/span&gt;&lt;span style=&quot;color: rgb(220, 215, 186);&quot;&gt; &lt;/span&gt;&lt;span style=&quot;color: rgb(192, 163, 110);&quot;&gt;*&lt;/span&gt;&lt;span style=&quot;color: rgb(220, 215, 186);&quot;&gt; &lt;/span&gt;&lt;span style=&quot;color: rgb(230, 195, 132);&quot;&gt;next&lt;/span&gt;&lt;span style=&quot;color: rgb(156, 171, 202);&quot;&gt;;&lt;/span&gt;&lt;/div&gt;&lt;div&gt;&lt;span style=&quot;color: rgb(156, 171, 202);&quot;&gt;};&lt;/span&gt;&lt;/div&gt;&lt;br&gt;&lt;div&gt;&lt;span style=&quot;color: rgb(149, 127, 184);&quot;&gt;typedef&lt;/span&gt;&lt;span style=&quot;color: rgb(220, 215, 186);&quot;&gt; &lt;/span&gt;&lt;span style=&quot;color: rgb(149, 127, 184);&quot;&gt;struct&lt;/span&gt;&lt;span style=&quot;color: rgb(220, 215, 186);&quot;&gt; &lt;/span&gt;&lt;span style=&quot;color: rgb(122, 168, 159);&quot;&gt;node&lt;/span&gt;&lt;span style=&quot;color: rgb(220, 215, 186);&quot;&gt; &lt;/span&gt;&lt;span style=&quot;color: rgb(122, 168, 159);&quot;&gt;NODE&lt;/span&gt;&lt;span style=&quot;color: rgb(156, 171, 202);&quot;&gt;;&lt;/span&gt;&lt;/div&gt;&lt;div&gt;&lt;span style=&quot;color: rgb(149, 127, 184);&quot;&gt;typedef&lt;/span&gt;&lt;span style=&quot;color: rgb(220, 215, 186);&quot;&gt; &lt;/span&gt;&lt;span style=&quot;color: rgb(149, 127, 184);&quot;&gt;struct&lt;/span&gt;&lt;span style=&quot;color: rgb(220, 215, 186);&quot;&gt; &lt;/span&gt;&lt;span style=&quot;color: rgb(122, 168, 159);&quot;&gt;node&lt;/span&gt;&lt;span style=&quot;color: rgb(220, 215, 186);&quot;&gt; &lt;/span&gt;&lt;span style=&quot;color: rgb(192, 163, 110);&quot;&gt;*&lt;/span&gt;&lt;span style=&quot;color: rgb(220, 215, 186);&quot;&gt; &lt;/span&gt;&lt;span style=&quot;color: rgb(122, 168, 159);&quot;&gt;PNODE&lt;/span&gt;&lt;span style=&quot;color: rgb(156, 171, 202);&quot;&gt;;&lt;/span&gt;&lt;/div&gt;&lt;div&gt;&lt;span style=&quot;color: rgb(149, 127, 184);&quot;&gt;typedef&lt;/span&gt;&lt;span style=&quot;color: rgb(220, 215, 186);&quot;&gt; &lt;/span&gt;&lt;span style=&quot;color: rgb(149, 127, 184);&quot;&gt;struct&lt;/span&gt;&lt;span style=&quot;color: rgb(220, 215, 186);&quot;&gt; &lt;/span&gt;&lt;span style=&quot;color: rgb(122, 168, 159);&quot;&gt;node&lt;/span&gt;&lt;span style=&quot;color: rgb(220, 215, 186);&quot;&gt; &lt;/span&gt;&lt;span style=&quot;color: rgb(192, 163, 110);&quot;&gt;**&lt;/span&gt;&lt;span style=&quot;color: rgb(220, 215, 186);&quot;&gt; &lt;/span&gt;&lt;span style=&quot;color: rgb(122, 168, 159);&quot;&gt;PPNODE&lt;/span&gt;&lt;span style=&quot;color: rgb(156, 171, 202);&quot;&gt;;&lt;/span&gt;&lt;/div&gt;&lt;br&gt;&lt;div&gt;&lt;span style=&quot;color: rgb(149, 127, 184);&quot;&gt;void&lt;/span&gt;&lt;span style=&quot;color: rgb(220, 215, 186);&quot;&gt; &lt;/span&gt;&lt;span style=&quot;color: rgb(126, 156, 216);&quot;&gt;InsertFirst&lt;/span&gt;&lt;span style=&quot;color: rgb(156, 171, 202);&quot;&gt;(&lt;/span&gt;&lt;span style=&quot;color: rgb(149, 127, 184);&quot;&gt;struct&lt;/span&gt;&lt;span style=&quot;color: rgb(220, 215, 186);&quot;&gt; &lt;/span&gt;&lt;span style=&quot;color: rgb(122, 168, 159);&quot;&gt;node&lt;/span&gt;&lt;span style=&quot;color: rgb(220, 215, 186);&quot;&gt; &lt;/span&gt;&lt;span style=&quot;color: rgb(192, 163, 110);&quot;&gt;**&lt;/span&gt;&lt;span style=&quot;color: rgb(220, 215, 186);&quot;&gt; &lt;/span&gt;&lt;span style=&quot;color: rgb(220, 215, 186);&quot;&gt;Head&lt;/span&gt;&lt;span style=&quot;color: rgb(156, 171, 202);&quot;&gt;,&lt;/span&gt;&lt;span style=&quot;color: rgb(220, 215, 186);&quot;&gt; &lt;/span&gt;&lt;span style=&quot;color: rgb(149, 127, 184);&quot;&gt;int&lt;/span&gt;&lt;span style=&quot;color: rgb(220, 215, 186);&quot;&gt; &lt;/span&gt;&lt;span style=&quot;color: rgb(220, 215, 186);&quot;&gt;iNo&lt;/span&gt;&lt;span style=&quot;color: rgb(156, 171, 202);&quot;&gt;)&lt;/span&gt;&lt;/div&gt;&lt;div&gt;&lt;span style=&quot;color: rgb(156, 171, 202);&quot;&gt;{&lt;/span&gt;&lt;/div&gt;&lt;div&gt;&lt;span style=&quot;color: rgb(220, 215, 186);&quot;&gt;    &lt;/span&gt;&lt;span style=&quot;color: rgb(149, 127, 184);&quot;&gt;struct&lt;/span&gt;&lt;span style=&quot;color: rgb(220, 215, 186);&quot;&gt; &lt;/span&gt;&lt;span style=&quot;color: rgb(122, 168, 159);&quot;&gt;node&lt;/span&gt;&lt;span style=&quot;color: rgb(220, 215, 186);&quot;&gt; &lt;/span&gt;&lt;span style=&quot;color: rgb(192, 163, 110);&quot;&gt;*&lt;/span&gt;&lt;span style=&quot;color: rgb(220, 215, 186);&quot;&gt; &lt;/span&gt;&lt;span style=&quot;color: rgb(220, 215, 186);&quot;&gt;newn&lt;/span&gt;&lt;span style=&quot;color: rgb(220, 215, 186);&quot;&gt; &lt;/span&gt;&lt;span style=&quot;color: rgb(192, 163, 110);&quot;&gt;=&lt;/span&gt;&lt;span style=&quot;color: rgb(220, 215, 186);&quot;&gt; &lt;/span&gt;&lt;span style=&quot;color: rgb(255, 160, 102);&quot;&gt;NULL&lt;/span&gt;&lt;span style=&quot;color: rgb(156, 171, 202);&quot;&gt;;&lt;/span&gt;&lt;/div&gt;&lt;div&gt;&lt;span style=&quot;color: rgb(220, 215, 186);&quot;&gt;    &lt;/span&gt;&lt;span style=&quot;color: rgb(220, 215, 186);&quot;&gt;newn&lt;/span&gt;&lt;span style=&quot;color: rgb(220, 215, 186);&quot;&gt; &lt;/span&gt;&lt;span style=&quot;color: rgb(192, 163, 110);&quot;&gt;=&lt;/span&gt;&lt;span style=&quot;color: rgb(220, 215, 186);&quot;&gt; &lt;/span&gt;&lt;span style=&quot;color: rgb(156, 171, 202);&quot;&gt;(&lt;/span&gt;&lt;span style=&quot;color: rgb(149, 127, 184);&quot;&gt;struct&lt;/span&gt;&lt;span style=&quot;color: rgb(220, 215, 186);&quot;&gt; &lt;/span&gt;&lt;span style=&quot;color: rgb(122, 168, 159);&quot;&gt;node&lt;/span&gt;&lt;span style=&quot;color: rgb(220, 215, 186);&quot;&gt; &lt;/span&gt;&lt;span style=&quot;color: rgb(192, 163, 110);&quot;&gt;*&lt;/span&gt;&lt;span style=&quot;color: rgb(156, 171, 202);&quot;&gt;)&lt;/span&gt;&lt;span style=&quot;color: rgb(126, 156, 216);&quot;&gt;malloc&lt;/span&gt;&lt;span style=&quot;color: rgb(156, 171, 202);&quot;&gt;(&lt;/span&gt;&lt;span style=&quot;color: rgb(192, 163, 110);&quot;&gt;sizeof&lt;/span&gt;&lt;span style=&quot;color: rgb(156, 171, 202);&quot;&gt;(&lt;/span&gt;&lt;span style=&quot;color: rgb(149, 127, 184);&quot;&gt;struct&lt;/span&gt;&lt;span style=&quot;color: rgb(126, 156, 216);&quot;&gt; &lt;/span&gt;&lt;span style=&quot;color: rgb(122, 168, 159);&quot;&gt;node&lt;/span&gt;&lt;span style=&quot;color: rgb(156, 171, 202);&quot;&gt;));&lt;/span&gt;&lt;/div&gt;&lt;div&gt;&lt;span style=&quot;color: rgb(220, 215, 186);&quot;&gt;    &lt;/span&gt;&lt;span style=&quot;color: rgb(220, 215, 186);&quot;&gt;newn&lt;/span&gt;&lt;span style=&quot;color: rgb(156, 171, 202);&quot;&gt;-&amp;gt;&lt;/span&gt;&lt;span style=&quot;color: rgb(230, 195, 132);&quot;&gt;data&lt;/span&gt;&lt;span style=&quot;color: rgb(220, 215, 186);&quot;&gt; &lt;/span&gt;&lt;span style=&quot;color: rgb(192, 163, 110);&quot;&gt;=&lt;/span&gt;&lt;span style=&quot;color: rgb(220, 215, 186);&quot;&gt; &lt;/span&gt;&lt;span style=&quot;color: rgb(220, 215, 186);&quot;&gt;iNo&lt;/span&gt;&lt;span style=&quot;color: rgb(156, 171, 202);&quot;&gt;;&lt;/span&gt;&lt;/div&gt;&lt;div&gt;&lt;span style=&quot;color: rgb(220, 215, 186);&quot;&gt;    &lt;/span&gt;&lt;span style=&quot;color: rgb(220, 215, 186);&quot;&gt;newn&lt;/span&gt;&lt;span style=&quot;color: rgb(156, 171, 202);&quot;&gt;-&amp;gt;&lt;/span&gt;&lt;span style=&quot;color: rgb(230, 195, 132);&quot;&gt;next&lt;/span&gt;&lt;span style=&quot;color: rgb(220, 215, 186);&quot;&gt; &lt;/span&gt;&lt;span style=&quot;color: rgb(192, 163, 110);&quot;&gt;=&lt;/span&gt;&lt;span style=&quot;color: rgb(220, 215, 186);&quot;&gt; &lt;/span&gt;&lt;span style=&quot;color: rgb(255, 160, 102);&quot;&gt;NULL&lt;/span&gt;&lt;span style=&quot;color: rgb(156, 171, 202);&quot;&gt;;&lt;/span&gt;&lt;span style=&quot;color: rgb(114, 113, 105);&quot;&gt; // only one node is present hence &lt;/span&gt;&lt;/div&gt;&lt;div&gt;&lt;span style=&quot;color: rgb(156, 171, 202);&quot;&gt;}&lt;/span&gt;&lt;/div&gt;&lt;br&gt;&lt;br&gt;&lt;div&gt;&lt;span style=&quot;color: rgb(149, 127, 184);&quot;&gt;int&lt;/span&gt;&lt;span style=&quot;color: rgb(220, 215, 186);&quot;&gt; &lt;/span&gt;&lt;span style=&quot;color: rgb(126, 156, 216);&quot;&gt;main&lt;/span&gt;&lt;span style=&quot;color: rgb(156, 171, 202);&quot;&gt;()&lt;/span&gt;&lt;/div&gt;&lt;div&gt;&lt;span style=&quot;color: rgb(156, 171, 202);&quot;&gt;{&lt;/span&gt;&lt;/div&gt;&lt;div&gt;&lt;span style=&quot;color: rgb(220, 215, 186);&quot;&gt;    &lt;/span&gt;&lt;span style=&quot;color: rgb(149, 127, 184);&quot;&gt;struct&lt;/span&gt;&lt;span style=&quot;color: rgb(220, 215, 186);&quot;&gt; &lt;/span&gt;&lt;span style=&quot;color: rgb(122, 168, 159);&quot;&gt;node&lt;/span&gt;&lt;span style=&quot;color: rgb(220, 215, 186);&quot;&gt; &lt;/span&gt;&lt;span style=&quot;color: rgb(192, 163, 110);&quot;&gt;*&lt;/span&gt;&lt;span style=&quot;color: rgb(220, 215, 186);&quot;&gt; &lt;/span&gt;&lt;span style=&quot;color: rgb(220, 215, 186);&quot;&gt;First&lt;/span&gt;&lt;span style=&quot;color: rgb(220, 215, 186);&quot;&gt; &lt;/span&gt;&lt;span style=&quot;color: rgb(192, 163, 110);&quot;&gt;=&lt;/span&gt;&lt;span style=&quot;color: rgb(220, 215, 186);&quot;&gt; &lt;/span&gt;&lt;span style=&quot;color: rgb(255, 160, 102);&quot;&gt;NULL&lt;/span&gt;&lt;span style=&quot;color: rgb(156, 171, 202);&quot;&gt;;&lt;/span&gt;&lt;/div&gt;&lt;div&gt;&lt;span style=&quot;color: rgb(220, 215, 186);&quot;&gt;    &lt;/span&gt;&lt;span style=&quot;color: rgb(126, 156, 216);&quot;&gt;InsertFirst&lt;/span&gt;&lt;span style=&quot;color: rgb(156, 171, 202);&quot;&gt;(&lt;/span&gt;&lt;span style=&quot;color: rgb(192, 163, 110);&quot;&gt;&amp;amp;&lt;/span&gt;&lt;span style=&quot;color: rgb(220, 215, 186);&quot;&gt;First&lt;/span&gt;&lt;span style=&quot;color: rgb(156, 171, 202);&quot;&gt;,&lt;/span&gt;&lt;span style=&quot;color: rgb(126, 156, 216);&quot;&gt; &lt;/span&gt;&lt;span style=&quot;color: rgb(210, 126, 153);&quot;&gt;10&lt;/span&gt;&lt;span style=&quot;color: rgb(156, 171, 202);&quot;&gt;);&lt;/span&gt;&lt;/div&gt;&lt;br&gt;&lt;div&gt;&lt;span style=&quot;color: rgb(220, 215, 186);&quot;&gt;    &lt;/span&gt;&lt;span style=&quot;color: rgb(149, 127, 184);&quot;&gt;return&lt;/span&gt;&lt;span style=&quot;color: rgb(220, 215, 186);&quot;&gt; &lt;/span&gt;&lt;span style=&quot;color: rgb(210, 126, 153);&quot;&gt;0&lt;/span&gt;&lt;span style=&quot;color: rgb(156, 171, 202);&quot;&gt;;&lt;/span&gt;&lt;/div&gt;&lt;div&gt;&lt;span style=&quot;color: rgb(156, 171, 202);&quot;&gt;}&lt;/span&gt;&lt;/div&gt;&lt;/div&gt;" style="text;whiteSpace=wrap;html=1;" vertex="1" parent="1">
                    <mxGeometry x="50" y="150" width="410" height="520" as="geometry"/>
                </mxCell>
                <mxCell id="3" value="" style="rounded=0;whiteSpace=wrap;html=1;" vertex="1" parent="1">
                    <mxGeometry x="690" y="410" width="120" height="60" as="geometry"/>
                </mxCell>
                <mxCell id="4" value="First" style="text;html=1;align=center;verticalAlign=middle;whiteSpace=wrap;rounded=0;" vertex="1" parent="1">
                    <mxGeometry x="640" y="425" width="60" height="30" as="geometry"/>
                </mxCell>
                <mxCell id="5" value="NULL" style="text;html=1;align=center;verticalAlign=middle;whiteSpace=wrap;rounded=0;" vertex="1" parent="1">
                    <mxGeometry x="720" y="425" width="60" height="30" as="geometry"/>
                </mxCell>
                <mxCell id="6" value="" style="pointerEvents=1;verticalLabelPosition=bottom;shadow=0;dashed=0;align=center;html=1;verticalAlign=top;shape=mxgraph.electrical.signal_sources.signal_ground;" vertex="1" parent="1">
                    <mxGeometry x="870" y="440" width="45" height="30" as="geometry"/>
                </mxCell>
                <mxCell id="9" value="" style="endArrow=none;html=1;entryX=0.5;entryY=0;entryDx=0;entryDy=0;entryPerimeter=0;exitX=1;exitY=0.5;exitDx=0;exitDy=0;" edge="1" parent="1" source="3" target="6">
                    <mxGeometry width="50" height="50" relative="1" as="geometry">
                        <mxPoint x="820" y="450" as="sourcePoint"/>
                        <mxPoint x="780" y="410" as="targetPoint"/>
                    </mxGeometry>
                </mxCell>
                <mxCell id="10" value="" style="rounded=1;whiteSpace=wrap;html=1;" vertex="1" parent="1">
                    <mxGeometry x="990" y="455" width="470" height="235" as="geometry"/>
                </mxCell>
                <mxCell id="11" value="HEAP MEMORY" style="text;html=1;align=center;verticalAlign=middle;whiteSpace=wrap;rounded=0;" vertex="1" parent="1">
                    <mxGeometry x="1200" y="425" width="110" height="30" as="geometry"/>
                </mxCell>
                <mxCell id="12" value="" style="rounded=0;whiteSpace=wrap;html=1;" vertex="1" parent="1">
                    <mxGeometry x="690" y="230" width="120" height="60" as="geometry"/>
                </mxCell>
                <mxCell id="13" value="Head" style="text;html=1;align=center;verticalAlign=middle;whiteSpace=wrap;rounded=0;" vertex="1" parent="1">
                    <mxGeometry x="640" y="245" width="60" height="30" as="geometry"/>
                </mxCell>
                <mxCell id="15" value="200" style="text;html=1;align=center;verticalAlign=middle;whiteSpace=wrap;rounded=0;" vertex="1" parent="1">
                    <mxGeometry x="660" y="290" width="60" height="30" as="geometry"/>
                </mxCell>
                <mxCell id="16" value="208" style="text;html=1;align=center;verticalAlign=middle;whiteSpace=wrap;rounded=0;" vertex="1" parent="1">
                    <mxGeometry x="780" y="290" width="60" height="30" as="geometry"/>
                </mxCell>
                <mxCell id="17" value="100" style="text;html=1;align=center;verticalAlign=middle;whiteSpace=wrap;rounded=0;" vertex="1" parent="1">
                    <mxGeometry x="660" y="470" width="60" height="30" as="geometry"/>
                </mxCell>
                <mxCell id="18" value="108" style="text;html=1;align=center;verticalAlign=middle;whiteSpace=wrap;rounded=0;" vertex="1" parent="1">
                    <mxGeometry x="780" y="470" width="60" height="30" as="geometry"/>
                </mxCell>
                <mxCell id="19" value="" style="endArrow=classic;html=1;exitX=0.5;exitY=1;exitDx=0;exitDy=0;entryX=0.5;entryY=0;entryDx=0;entryDy=0;" edge="1" parent="1" source="12" target="3">
                    <mxGeometry width="50" height="50" relative="1" as="geometry">
                        <mxPoint x="790" y="390" as="sourcePoint"/>
                        <mxPoint x="840" y="340" as="targetPoint"/>
                    </mxGeometry>
                </mxCell>
                <mxCell id="20" value="" style="rounded=0;whiteSpace=wrap;html=1;" vertex="1" parent="1">
                    <mxGeometry x="1010" y="110" width="120" height="60" as="geometry"/>
                </mxCell>
                <mxCell id="21" value="iNo" style="text;html=1;align=center;verticalAlign=middle;whiteSpace=wrap;rounded=0;" vertex="1" parent="1">
                    <mxGeometry x="960" y="125" width="60" height="30" as="geometry"/>
                </mxCell>
                <mxCell id="22" value="300" style="text;html=1;align=center;verticalAlign=middle;whiteSpace=wrap;rounded=0;" vertex="1" parent="1">
                    <mxGeometry x="980" y="170" width="60" height="30" as="geometry"/>
                </mxCell>
                <mxCell id="23" value="304" style="text;html=1;align=center;verticalAlign=middle;whiteSpace=wrap;rounded=0;" vertex="1" parent="1">
                    <mxGeometry x="1100" y="170" width="60" height="30" as="geometry"/>
                </mxCell>
                <mxCell id="24" value="" style="rounded=0;whiteSpace=wrap;html=1;" vertex="1" parent="1">
                    <mxGeometry x="1260" y="230" width="120" height="60" as="geometry"/>
                </mxCell>
                <mxCell id="25" value="newn" style="text;html=1;align=center;verticalAlign=middle;whiteSpace=wrap;rounded=0;" vertex="1" parent="1">
                    <mxGeometry x="1200" y="245" width="60" height="30" as="geometry"/>
                </mxCell>
                <mxCell id="26" value="400" style="text;html=1;align=center;verticalAlign=middle;whiteSpace=wrap;rounded=0;" vertex="1" parent="1">
                    <mxGeometry x="1230" y="290" width="60" height="30" as="geometry"/>
                </mxCell>
                <mxCell id="27" value="408" style="text;html=1;align=center;verticalAlign=middle;whiteSpace=wrap;rounded=0;" vertex="1" parent="1">
                    <mxGeometry x="1350" y="290" width="60" height="30" as="geometry"/>
                </mxCell>
                <mxCell id="28" value="10" style="text;html=1;align=center;verticalAlign=middle;whiteSpace=wrap;rounded=0;" vertex="1" parent="1">
                    <mxGeometry x="1040" y="125" width="60" height="30" as="geometry"/>
                </mxCell>
                <mxCell id="33" value="" style="rounded=0;whiteSpace=wrap;html=1;" vertex="1" parent="1">
                    <mxGeometry x="1070" y="520" width="120" height="60" as="geometry"/>
                </mxCell>
                <mxCell id="34" value="Data" style="text;html=1;align=center;verticalAlign=middle;whiteSpace=wrap;rounded=0;" vertex="1" parent="1">
                    <mxGeometry x="1070" y="490" width="60" height="30" as="geometry"/>
                </mxCell>
                <mxCell id="36" value="" style="pointerEvents=1;verticalLabelPosition=bottom;shadow=0;dashed=0;align=center;html=1;verticalAlign=top;shape=mxgraph.electrical.signal_sources.signal_ground;" vertex="1" parent="1">
                    <mxGeometry x="1250" y="550" width="45" height="30" as="geometry"/>
                </mxCell>
                <mxCell id="37" value="" style="endArrow=none;html=1;entryX=0.5;entryY=0;entryDx=0;entryDy=0;entryPerimeter=0;exitX=1;exitY=0.5;exitDx=0;exitDy=0;" edge="1" parent="1" source="33" target="36">
                    <mxGeometry width="50" height="50" relative="1" as="geometry">
                        <mxPoint x="1200" y="560" as="sourcePoint"/>
                        <mxPoint x="1160" y="520" as="targetPoint"/>
                    </mxGeometry>
                </mxCell>
                <mxCell id="38" value="500" style="text;html=1;align=center;verticalAlign=middle;whiteSpace=wrap;rounded=0;" vertex="1" parent="1">
                    <mxGeometry x="1040" y="580" width="60" height="30" as="geometry"/>
                </mxCell>
                <mxCell id="39" value="512" style="text;html=1;align=center;verticalAlign=middle;whiteSpace=wrap;rounded=0;" vertex="1" parent="1">
                    <mxGeometry x="1160" y="580" width="60" height="30" as="geometry"/>
                </mxCell>
                <mxCell id="40" value="next" style="text;html=1;align=center;verticalAlign=middle;whiteSpace=wrap;rounded=0;" vertex="1" parent="1">
                    <mxGeometry x="1130" y="490" width="60" height="30" as="geometry"/>
                </mxCell>
                <mxCell id="41" value="" style="endArrow=none;html=1;exitX=0.5;exitY=1;exitDx=0;exitDy=0;entryX=0.5;entryY=0;entryDx=0;entryDy=0;" edge="1" parent="1" source="33" target="33">
                    <mxGeometry width="50" height="50" relative="1" as="geometry">
                        <mxPoint x="1070" y="430" as="sourcePoint"/>
                        <mxPoint x="1120" y="380" as="targetPoint"/>
                    </mxGeometry>
                </mxCell>
                <mxCell id="42" value="&lt;strike&gt;NULL&lt;/strike&gt;" style="text;html=1;align=center;verticalAlign=middle;whiteSpace=wrap;rounded=0;" vertex="1" parent="1">
                    <mxGeometry x="1260" y="245" width="60" height="30" as="geometry"/>
                </mxCell>
                <mxCell id="43" value="500" style="text;html=1;align=center;verticalAlign=middle;whiteSpace=wrap;rounded=0;" vertex="1" parent="1">
                    <mxGeometry x="1310" y="245" width="60" height="30" as="geometry"/>
                </mxCell>
                <mxCell id="44" value="" style="endArrow=classic;html=1;entryX=0;entryY=0.5;entryDx=0;entryDy=0;exitX=0.5;exitY=1;exitDx=0;exitDy=0;" edge="1" parent="1" source="24" target="33">
                    <mxGeometry width="50" height="50" relative="1" as="geometry">
                        <mxPoint x="1070" y="450" as="sourcePoint"/>
                        <mxPoint x="1120" y="400" as="targetPoint"/>
                        <Array as="points">
                            <mxPoint x="1320" y="360"/>
                            <mxPoint x="1140" y="360"/>
                            <mxPoint x="940" y="360"/>
                            <mxPoint x="940" y="550"/>
                        </Array>
                    </mxGeometry>
                </mxCell>
                <mxCell id="45" value="NULL" style="text;html=1;align=center;verticalAlign=middle;whiteSpace=wrap;rounded=0;" vertex="1" parent="1">
                    <mxGeometry x="1130" y="540" width="60" height="30" as="geometry"/>
                </mxCell>
                <mxCell id="46" value="10" style="text;html=1;align=center;verticalAlign=middle;whiteSpace=wrap;rounded=0;" vertex="1" parent="1">
                    <mxGeometry x="1070" y="540" width="60" height="30" as="geometry"/>
                </mxCell>
                <mxCell id="47" value="&lt;font style=&quot;font-size: 22px;&quot;&gt;*&lt;/font&gt;" style="text;html=1;align=center;verticalAlign=middle;whiteSpace=wrap;rounded=0;" vertex="1" parent="1">
                    <mxGeometry x="710" y="330" width="60" height="30" as="geometry"/>
                </mxCell>
                <mxCell id="48" value="&lt;font style=&quot;font-size: 22px;&quot;&gt;*&lt;/font&gt;" style="text;html=1;align=center;verticalAlign=middle;whiteSpace=wrap;rounded=0;" vertex="1" parent="1">
                    <mxGeometry x="1090" y="340" width="60" height="30" as="geometry"/>
                </mxCell>
                <mxCell id="49" value="100" style="text;html=1;align=center;verticalAlign=middle;whiteSpace=wrap;rounded=0;" vertex="1" parent="1">
                    <mxGeometry x="720" y="245" width="60" height="30" as="geometry"/>
                </mxCell>
            </root>
        </mxGraphModel>
    </diagram>
</mxfile>